<!-- Generator: Adobe Illustrator 18.1.1, SVG Export Plug-In  -->
<svg version="1.1"
   xmlns="http://www.w3.org/2000/svg" xmlns:xlink="http://www.w3.org/1999/xlink" xmlns:a="http://ns.adobe.com/AdobeSVGViewerExtensions/3.0/"
   x="0px" y="0px" width="241.198px" height="226.399px" viewBox="0 0 241.198 226.399" enable-background="new 0 0 241.198 226.399"
   xml:space="preserve">
<defs>
</defs>
<path fill="#F2F2F2" d="M0.166,115.152c-2.16,18.057,17.02,30.766,42.291,38.958c0.841,0.264,7.01,1.922,8.895-5.326
  c-23.567-7.489-38.55-18.685-38.55-31.202c0-22.545,48.555-40.822,108.451-40.822c59.896,0,106.013,18.277,106.013,40.822
  c0,12.502-15.901,23.686-40.901,31.174v0.011c0,7.217,10.35,6.092,11.24,5.884c26.015-8.608,44.982-21.956,43.514-39.499
  C236.358,58.258,200.605,0,120.642,0C40.301,0,6.884,58.98,0.166,115.152z"/>
<path fill="#D0494B" d="M172.934,115.473c-13.782-5.709-31.45-9.223-51.683-9.223c-20.177,0-37.893,3.551-51.728,9.311
  c-3.066,6.237-4.781,14.58-4.781,25.79c0,43.212,25.3,85.048,56.508,85.048c31.209,0,56.508-41.836,56.508-85.049
  C177.76,130.088,176.028,121.72,172.934,115.473z M90.115,159.059c-4.418,0-8-5.82-8-13s3.582-13,8-13s8,5.82,8,13
  S94.534,159.059,90.115,159.059z M149.115,159.059c-4.418,0-8-5.82-8-13s3.582-13,8-13c4.418,0,8,5.82,8,13
  S153.533,159.059,149.115,159.059z"/>
</svg>
