<!-- Generator: Adobe Illustrator 19.2.0, SVG Export Plug-In  -->
<svg version="1.1"
	 xmlns="http://www.w3.org/2000/svg" xmlns:xlink="http://www.w3.org/1999/xlink" xmlns:a="http://ns.adobe.com/AdobeSVGViewerExtensions/3.0/"
	 x="0px" y="0px" width="1033.8px" height="603.9px" viewBox="0 0 1033.8 603.9" style="enable-background:new 0 0 1033.8 603.9;"
	 xml:space="preserve">
<style type="text/css">
	.st0{fill:#32AFE5;}
	.st1{fill:#F2F2F2;}
	.st2{font-family:'MuseoSans-300';}
	.st3{font-size:15.7361px;}
	.st4{fill:#D0494B;}
	.st5{font-family:'MuseoSans-700';}
	.st6{letter-spacing:2;}
	.st7{font-size:17.6668px;}
	.st8{fill:none;stroke:#D0494B;stroke-width:3;stroke-linecap:round;stroke-linejoin:round;stroke-miterlimit:10;}
	.st9{fill:none;stroke:#32AFE5;stroke-width:3;stroke-linecap:round;stroke-linejoin:round;stroke-miterlimit:10;}
	.st10{enable-background:new    ;}
	.st11{letter-spacing:1;}
</style>
<defs>
</defs>
<g>
	<rect x="488.5" y="191.9" class="st0" width="94" height="23.9"/>
	<circle class="st1" cx="537.4" cy="537.9" r="66"/>
	<path class="st1" d="M917.4,165.7C905,71.7,824.5,0,728.4,0c-70.5,0-135.8,39.8-168.6,101.9c-50.2,1.1-93.9,28.7-117.7,69.4
		c-16.7-10.3-36.2-16.4-57.1-16.9c-26.7-50.5-79.7-82.8-137-82.8c-78.1,0-143.5,58.3-153.5,134.6C43.9,202.2,0,242.5,0,293.9
		c0,45,24.6,67.5,45.2,77.7c21.7,10.6,43.4,12.2,47.5,12.2h299.9l156.2-0.1l1.3,0.1h369.3c5.1,0,31.9-1.7,58.5-14.8
		c25.4-12.5,55.7-39.5,55.7-94.9C1033.8,210.8,979.7,160.7,917.4,165.7z"/>
	<text transform="matrix(1 0 0 1 103.0219 284.6763)" class="st2 st3">Artificial-Engineering / lycheejs</text>
	<g>
		<text transform="matrix(1 0 0 1 358.6317 414.3796)" class="st4 st5 st3 st6">Fetch</text>
	</g>
	<g>
		<text transform="matrix(1 0 0 1 661.9188 414.3796)" class="st4 st5 st3 st6">Push</text>
	</g>
	<g>
		<text transform="matrix(1 0 0 1 477.5985 208.1624)" class="st0 st5 st3 st6">maintainer</text>
	</g>
	<text transform="matrix(1 0 0 1 759.8184 284.6763)" class="st2 st3">YourName / lycheeJS</text>
	<text transform="matrix(1 0 0 1 164.9403 256.5757)" class="st5 st7 st6">Upstream</text>
	<text transform="matrix(1 0 0 1 806.6792 256.5757)" class="st5 st3 st6">Origin</text>
	<text transform="matrix(1 0 0 1 506.1514 544.7295)" class="st5 st3 st6">Local</text>
	<path class="st8" d="M632.2,499.3c0,0,101.6-49.9,169-169"/>
	<polyline class="st8" points="767.7,337.8 801.8,329.3 811.2,363.8 	"/>
	<path class="st9" d="M734.7,202.2c0,0-184.3-62.8-411.3,0"/>
	<polyline class="st9" points="352.5,220.8 322.3,202.8 340.1,171.8 	"/>
	<path class="st8" d="M268.7,324.9c0,0,49.9,101.6,169,169"/>
	<polyline class="st8" points="430.2,460.3 438.7,494.4 404.3,503.8 	"/>
</g>
</svg>
