<!-- Generator: Adobe Illustrator 18.1.1, SVG Export Plug-In  -->
<svg version="1.1"
   xmlns="http://www.w3.org/2000/svg" xmlns:xlink="http://www.w3.org/1999/xlink" xmlns:a="http://ns.adobe.com/AdobeSVGViewerExtensions/3.0/"
   x="0px" y="0px" width="228.4px" height="168.8px" viewBox="0 0 228.4 168.8" enable-background="new 0 0 228.4 168.8"
   xml:space="preserve">
<defs>
</defs>
<path opacity="0.27" d="M228.4,96.5c-8.3-1.5-24.7-4-40.4-4c-0.2,0-0.5,0-0.7,0c0,1,0,1.9-0.1,2.9c-0.9,7.8-3,17.7-7.5,27.7
  C198,117,219.2,102.9,228.4,96.5z"/>
<path opacity="0.27" d="M177.5,127.6c-2.6,5-5.9,9.9-10,14.5c-4.4,5-9.5,9.1-15.2,12.5c25.7,11.1,70,14.2,70,14.2
  S200.1,142.2,177.5,127.6z"/>
<path opacity="0.27" d="M60.5,142.3c-3.9-4.3-7.2-9.1-10-14.4C28,142.6,6.1,168.8,6.1,168.8s43.9-3,69.7-14
  C70.1,151.4,65,147.3,60.5,142.3z"/>
<path opacity="0.27" d="M41,95.1c-0.1-0.9-0.1-1.8,0-2.6c-0.2,0-0.4,0-0.6,0c-15.7,0-32.1,2.5-40.4,4c9.1,6.3,29.9,20.1,47.9,26.3
  C44.2,114.3,41.8,105,41,95.1z"/>
<path opacity="0.27" d="M179.9,94.5c1.2-9.8-9.2-16.7-23-21.2c-0.5-0.1-3.8-1-4.8,2.9c12.8,4.1,20.9,10.1,20.9,16.9
  c0,12.2-26.4,22.2-58.9,22.2c-32.5,0-58.5-9.9-58.5-22.2c0-6.8,8.3-12.9,21.3-16.9c0,0,0,0,0,0c0-3.9-4.7-3.3-5.2-3.2
  c-14.1,4.7-24,11.9-23.2,21.5c2.6,30.9,22.2,62.5,65.7,62.5C157.9,157,176.2,125,179.9,94.5z"/>
<ellipse fill="#C23D50" cx="114.3" cy="47.5" rx="30.7" ry="47.5"/>
</svg>
