<!-- Generator: Adobe Illustrator 18.1.1, SVG Export Plug-In  -->
<svg version="1.1"
   xmlns="http://www.w3.org/2000/svg" xmlns:xlink="http://www.w3.org/1999/xlink" xmlns:a="http://ns.adobe.com/AdobeSVGViewerExtensions/3.0/"
   x="0px" y="0px" width="228.4px" height="134.7px" viewBox="0 0 228.4 134.7" enable-background="new 0 0 228.4 134.7"
   xml:space="preserve">
<defs>
</defs>
<path opacity="0.27" d="M228.4,62.4c-8.3-1.5-24.7-4-40.4-4c-0.2,0-0.5,0-0.7,0c0,1,0,1.9-0.1,2.9c-0.9,7.8-3,17.7-7.5,27.7
  C198,82.9,219.2,68.8,228.4,62.4z"/>
<path opacity="0.27" d="M177.5,93.5c-2.6,5-5.9,9.9-10,14.5c-4.4,5-9.5,9.1-15.2,12.5c25.7,11.1,70,14.2,70,14.2
  S200.1,108.1,177.5,93.5z"/>
<path opacity="0.27" d="M60.5,108.2c-3.9-4.3-7.2-9.1-10-14.4C28,108.5,6.1,134.7,6.1,134.7s43.9-3,69.7-14
  C70.1,117.3,65,113.2,60.5,108.2z"/>
<path opacity="0.27" d="M41,61c-0.1-0.9-0.1-1.8,0-2.6c-0.2,0-0.4,0-0.6,0c-15.7,0-32.1,2.5-40.4,4c9.1,6.3,29.9,20.1,47.9,26.3
  C44.2,80.3,41.8,70.9,41,61z"/>
<path opacity="0.27" d="M179.9,60.4c1.2-9.8-9.2-16.7-23-21.2c-0.5-0.1-3.8-1-4.8,2.9c12.8,4.1,20.9,10.1,20.9,16.9
  c0,12.2-26.4,22.2-58.9,22.2c-32.5,0-58.5-9.9-58.5-22.2c0-6.8,8.3-12.9,21.3-16.9c0,0,0,0,0,0c0-3.9-4.7-3.3-5.2-3.2
  c-14.1,4.7-24,11.9-23.2,21.5c2.6,30.9,22.2,62.5,65.7,62.5C157.9,123,176.2,90.9,179.9,60.4z"/>
<path fill="#C23D50" d="M114.1,65.3c11,0,20.6-1.9,28.1-5.1c1.7-3.4,2.6-7.9,2.6-14c0-23.5-13.7-46.2-30.7-46.2S83.4,22.7,83.4,46.2
  c0,6.1,0.9,10.7,2.6,14.1C93.5,63.3,103.1,65.3,114.1,65.3z"/>
</svg>
