<?xml version="1.0" encoding="UTF-8" standalone="no"?>
<!-- Generator: Adobe Illustrator 18.1.1, SVG Export Plug-In  -->
<svg xmlns:rdf="http://www.w3.org/1999/02/22-rdf-syntax-ns#" xmlns="http://www.w3.org/2000/svg" version="1.1" xml:space="preserve" height="256" width="256" enable-background="new 0 0 420.606 248.004" y="0px" x="0px" xmlns:cc="http://creativecommons.org/ns#" xmlns:dc="http://purl.org/dc/elements/1.1/" viewBox="0 0 255.99757 256.00413"><defs><filter id="a" style="color-interpolation-filters:sRGB" height="2" width="1.2" y="-.4" x="-.1"><feFlood flood-color="rgb(50,175,229)" result="flood" flood-opacity=".49804"/><feComposite operator="in" result="composite1" in2="SourceGraphic" in="flood"/><feGaussianBlur stdDeviation="5" result="blur" in="composite1"/><feOffset result="offset" dx="0" dy="0"/><feComposite operator="over" result="composite2" in2="offset" in="SourceGraphic"/></filter></defs><metadata><rdf:RDF><cc:Work rdf:about=""><dc:format>image/svg+xml</dc:format><dc:type rdf:resource="http://purl.org/dc/dcmitype/StillImage"/><dc:title/></cc:Work></rdf:RDF></metadata><path fill="#f2f2f2" d="m201.59 120.29c1.3147-10.922-10.359-18.608-25.74-23.563-0.51187-0.15968-4.2666-1.1625-5.4139 3.2214 14.344 4.5296 23.464 11.301 23.464 18.872 0 13.636-29.553 24.691-66.008 24.691s-65.344-11.055-65.344-24.691c0-7.5617 8.8588-14.326 24.075-18.855v-0.0067c0-4.3651-5.4796-3.6847-6.0219-3.5589-15.834 5.2064-26.968 13.28-26.075 23.89 2.8972 34.412 24.863 69.647 73.53 69.647 48.892 0 69.434-35.673 73.524-69.647z"/><path fill-opacity=".94118" fill="#f2f2f2" d="m127.89 125.67c12.28 0 23.063-2.1478 31.484-5.6316 1.8661-3.7723 2.91-8.8185 2.91-15.598 0-26.136-15.398-51.44-34.393-51.44-18.994 0-34.394 25.304-34.394 51.44 0 6.8122 1.0541 11.872 2.9373 15.651 8.3871 3.4476 19.135 5.5766 31.455 5.5766z"/><path d="m162.1 195.48c-9.7696 3.8417-21.08 6.0436-34.126 6.0436-13.019 0-24.39-2.1854-34.258-6.0133-9.2515 2.1909-15.022 5.2555-15.022 8.6535 0 6.6582 22.066 12.054 49.286 12.054s49.286-5.396 49.286-12.054c0-3.4118-5.8342-6.4901-15.166-8.6838z" filter="url(#a)" stroke="#32afe5" stroke-width="1.5" fill="#d0494b"/><g fill="#f2f2f2"><path d="m256 122.48c-9.3372-1.6536-27.702-4.445-45.263-4.445-0.26963 0-0.52526 0.008-0.79307 0.01 0.0292 1.0657 0.009 2.1387-0.12112 3.2226-1.0505 8.7272-3.3975 19.758-8.4036 30.836 20.432-6.7984 44.273-22.464 54.583-29.625z"/><path d="m198.96 157.13c-2.9501 5.5687-6.6245 11.064-11.224 16.195-4.9726 5.5476-10.675 10.18-16.987 13.905 28.847 12.371 78.418 15.771 78.418 15.771s-24.924-29.607-50.207-45.871z"/><path d="m67.751 173.55c-4.35-4.7613-8.1145-10.173-11.26-16.065-25.094 16.336-49.661 45.519-49.661 45.519s49.216-3.3756 78.107-15.638c-6.3786-3.7016-12.149-8.3044-17.188-13.821z"/><path d="m45.942 120.97c-0.08278-0.98528-0.08034-1.9621-0.03469-2.9335-0.2185-0.00061-0.42727-0.007-0.6476-0.007-17.574 0-35.93 2.7907-45.262 4.445 10.166 7.0621 33.492 22.39 53.727 29.333-4.182-9.4355-6.8594-19.881-7.7821-30.841z"/></g></svg>
