<?xml version="1.0" encoding="UTF-8" standalone="no"?>
<!-- Generator: Adobe Illustrator 18.1.1, SVG Export Plug-In  -->
<svg xmlns:rdf="http://www.w3.org/1999/02/22-rdf-syntax-ns#" xmlns="http://www.w3.org/2000/svg" enable-background="new 0 0 420.606 248.004" xml:space="preserve" height="256" width="256" version="1.1" y="0px" x="0px" xmlns:cc="http://creativecommons.org/ns#" xmlns:dc="http://purl.org/dc/elements/1.1/" viewBox="0 0 255.99757 256.00413"><defs><filter id="a" style="color-interpolation-filters:sRGB"><feFlood flood-color="rgb(50,175,229)" result="flood" flood-opacity=".49804"/><feComposite operator="in" result="composite1" in2="SourceGraphic" in="flood"/><feGaussianBlur stdDeviation="5" result="blur" in="composite1"/><feOffset result="offset" dx="0" dy="0"/><feComposite operator="over" result="composite2" in2="offset" in="SourceGraphic"/></filter></defs><metadata><rdf:RDF><cc:Work rdf:about=""><dc:format>image/svg+xml</dc:format><dc:type rdf:resource="http://purl.org/dc/dcmitype/StillImage"/><dc:title/></cc:Work></rdf:RDF></metadata><g fill="#32afe5" transform="translate(0 2)"><path filter="url(#a)" d="m127.95 10.57s28.603 50.431 0 50.431c-28.604 0 0-50.431 0-50.431z"/><path filter="url(#a)" d="m155.25 2.745s34.14 31.165 12.456 38.229c-21.69 7.064-12.46-38.229-12.46-38.229z"/><path filter="url(#a)" d="m100.75 2.745s-34.14 31.165-12.456 38.229c21.683 7.064 12.456-38.229 12.456-38.229z"/></g><path fill="#f2f2f2" d="m200.96 120.04c1.3053-10.918-10.291-18.603-25.572-23.556-0.50748-0.1601-4.2389-1.1615-5.3787 3.2213 14.25 4.5293 23.309 11.298 23.309 18.866 0 13.631-29.358 24.682-65.574 24.682s-65.237-11.051-65.237-24.682c0-7.5606 10.025-14.321 23.594-18.85v-0.005c0-4.3638-5.1209-3.6826-5.6583-3.5578-15.729 5.2051-26.631 13.276-25.743 23.881 2.8794 34.4 24.782 69.625 73.132 69.625 48.577 0 69.069-35.662 73.129-69.625z"/><path fill="#d0494b" d="m127.74 121.72c7.0342 0 13.208-1.2375 18.03-3.2457 1.0693-2.1738 1.6663-5.083 1.6663-8.9908 0-15.062-8.8199-29.646-19.697-29.646s-19.697 14.584-19.697 29.646c0 3.9269 0.60247 6.8415 1.6826 9.0207 4.8034 1.9919 10.961 3.2159 18.014 3.2159z"/><g fill="#f2f2f2"><path d="m256 122.48c-9.3372-1.6536-27.702-4.445-45.263-4.445-0.26963 0-0.52526 0.008-0.79307 0.01 0.0292 1.0657 0.009 2.1387-0.12112 3.2226-1.0505 8.7272-3.3975 19.758-8.4036 30.836 20.432-6.7984 44.273-22.464 54.583-29.625z"/><path d="m198.96 157.13c-2.9501 5.5687-6.6245 11.064-11.224 16.195-4.9726 5.5476-10.675 10.18-16.987 13.905 28.847 12.371 78.418 15.771 78.418 15.771s-24.924-29.607-50.207-45.871z"/><path d="m67.751 173.55c-4.35-4.7613-8.1145-10.173-11.26-16.065-25.094 16.336-49.661 45.519-49.661 45.519s49.216-3.3756 78.107-15.638c-6.3786-3.7016-12.149-8.3044-17.188-13.821z"/><path d="m45.942 120.97c-0.08278-0.98528-0.08034-1.9621-0.03469-2.9335-0.2185-0.00061-0.42727-0.007-0.6476-0.007-17.574 0-35.93 2.7907-45.262 4.445 10.166 7.0621 33.492 22.39 53.727 29.333-4.182-9.4355-6.8594-19.881-7.7821-30.841z"/></g></svg>
