<?xml version="1.0" encoding="UTF-8" standalone="no"?>
<!-- Generator: Adobe Illustrator 18.1.1, SVG Export Plug-In  -->

<svg
   xmlns:dc="http://purl.org/dc/elements/1.1/"
   xmlns:cc="http://creativecommons.org/ns#"
   xmlns:rdf="http://www.w3.org/1999/02/22-rdf-syntax-ns#"
   xmlns:svg="http://www.w3.org/2000/svg"
   xmlns="http://www.w3.org/2000/svg"
   xmlns:sodipodi="http://sodipodi.sourceforge.net/DTD/sodipodi-0.dtd"
   xmlns:inkscape="http://www.inkscape.org/namespaces/inkscape"
   version="1.1"
   xml:space="preserve"
   height="256"
   width="256"
   enable-background="new 0 0 420.606 248.004"
   y="0px"
   x="0px"
   viewBox="0 0 255.99757 256.00413"
   id="svg6287"
   inkscape:version="0.91 r13725"
   sodipodi:docname="growth.svg"><sodipodi:namedview
     pagecolor="#ffffff"
     bordercolor="#666666"
     borderopacity="1"
     objecttolerance="10"
     gridtolerance="10"
     guidetolerance="10"
     inkscape:pageopacity="0"
     inkscape:pageshadow="2"
     inkscape:window-width="1920"
     inkscape:window-height="1018"
     id="namedview6320"
     showgrid="false"
     inkscape:zoom="3.6875001"
     inkscape:cx="129.00386"
     inkscape:cy="195.58623"
     inkscape:window-x="1920"
     inkscape:window-y="27"
     inkscape:window-maximized="1"
     inkscape:current-layer="svg6287" /><defs
     id="defs6289"><filter
       id="a"
       style="color-interpolation-filters:sRGB"
       height="2"
       width="1.2"
       y="-.4"
       x="-.1"><feFlood
         flood-color="rgb(50,175,229)"
         result="flood"
         flood-opacity=".49804"
         id="feFlood6292" /><feComposite
         operator="in"
         result="composite1"
         in2="SourceGraphic"
         in="flood"
         id="feComposite6294" /><feGaussianBlur
         stdDeviation="5"
         result="blur"
         in="composite1"
         id="feGaussianBlur6296" /><feOffset
         result="offset"
         dx="0"
         dy="0"
         id="feOffset6298" /><feComposite
         operator="over"
         result="composite2"
         in2="offset"
         in="SourceGraphic"
         id="feComposite6300" /></filter><filter
       style="color-interpolation-filters:sRGB;"
       inkscape:label="Drop Shadow"
       id="filter4153"><feFlood
         flood-opacity="0.498039"
         flood-color="rgb(50,175,229)"
         result="flood"
         id="feFlood4155" /><feComposite
         in="flood"
         in2="SourceGraphic"
         operator="in"
         result="composite1"
         id="feComposite4157" /><feGaussianBlur
         in="composite1"
         stdDeviation="5"
         result="blur"
         id="feGaussianBlur4159" /><feOffset
         dx="0"
         dy="0"
         result="offset"
         id="feOffset4161" /><feComposite
         in="SourceGraphic"
         in2="offset"
         operator="over"
         result="composite2"
         id="feComposite4163" /></filter></defs><metadata
     id="metadata6302"><rdf:RDF><cc:Work
         rdf:about=""><dc:format>image/svg+xml</dc:format><dc:type
           rdf:resource="http://purl.org/dc/dcmitype/StillImage" /><dc:title /></cc:Work></rdf:RDF></metadata><g
     id="g4165"><path
       id="path6304"
       d="m 201.59,120.29 c 1.3147,-10.922 -10.359,-18.608 -25.74,-23.563 -0.51187,-0.15968 -4.2666,-1.1625 -5.4139,3.2214 14.344,4.5296 23.464,11.301 23.464,18.872 0,13.636 -29.553,24.691 -66.008,24.691 -36.455,0 -65.344,-11.055 -65.344,-24.691 0,-7.5617 8.8588,-14.326 24.075,-18.855 l 0,-0.0067 c 0,-4.3651 -5.4796,-3.6847 -6.0219,-3.5589 -15.834,5.2064 -26.968,13.28 -26.075,23.89 2.8972,34.412 24.863,69.647 73.53,69.647 48.892,0 69.434,-35.673 73.524,-69.647 z"
       inkscape:connector-curvature="0"
       style="fill:#f2f2f2" /><g
       id="g6310"
       style="fill:#f2f2f2"><path
         id="path6312"
         d="m 256,122.48 c -9.3372,-1.6536 -27.702,-4.445 -45.263,-4.445 -0.26963,0 -0.52526,0.008 -0.79307,0.01 0.0292,1.0657 0.009,2.1387 -0.12112,3.2226 -1.0505,8.7272 -3.3975,19.758 -8.4036,30.836 20.432,-6.7984 44.273,-22.464 54.583,-29.625 z"
         inkscape:connector-curvature="0" /><path
         id="path6314"
         d="m 198.96,157.13 c -2.9501,5.5687 -6.6245,11.064 -11.224,16.195 -4.9726,5.5476 -10.675,10.18 -16.987,13.905 28.847,12.371 78.418,15.771 78.418,15.771 0,0 -24.924,-29.607 -50.207,-45.871 z"
         inkscape:connector-curvature="0" /><path
         id="path6316"
         d="m 67.751,173.55 c -4.35,-4.7613 -8.1145,-10.173 -11.26,-16.065 -25.094,16.336 -49.661,45.519 -49.661,45.519 0,0 49.216,-3.3756 78.107,-15.638 -6.3786,-3.7016 -12.149,-8.3044 -17.188,-13.821 z"
         inkscape:connector-curvature="0" /><path
         id="path6318"
         d="m 45.942,120.97 c -0.08278,-0.98528 -0.08034,-1.9621 -0.03469,-2.9335 -0.2185,-6.1e-4 -0.42727,-0.007 -0.6476,-0.007 -17.574,0 -35.93,2.7907 -45.262,4.445 10.166,7.0621 33.492,22.39 53.727,29.333 -4.182,-9.4355 -6.8594,-19.881 -7.7821,-30.841 z"
         inkscape:connector-curvature="0" /></g><path
       transform="matrix(1.0013125,0,0,0.92476197,-0.21316182,8.8148418)"
       style="fill:#d0494b;fill-opacity:1;stroke:#32afe5;stroke-width:1.44575238;stroke-miterlimit:4;stroke-dasharray:none;stroke-opacity:1;filter:url(#filter4153)"
       inkscape:connector-curvature="0"
       d="m 127.92955,27.100733 c 0.53963,0.690703 1.31012,1.223012 2.24752,1.464498 0.46175,0.280434 5.20711,3.731351 1.3741,22.401092 -1.14878,5.577551 -2.38381,10.474786 -3.57989,15.211035 -4.24194,16.797571 -7.59095,30.066327 -2.62861,55.894942 0.36162,1.88776 2.12235,3.20685 4.10286,3.20685 0.24478,0 0.49512,-0.0208 0.74266,-0.0597 2.26701,-0.37911 3.77741,-2.40447 3.3713,-4.52073 -4.65917,-24.242095 -1.48259,-36.814949 2.53678,-52.734861 0.0167,-0.06232 0.0306,-0.127233 0.0473,-0.189554 2.92066,-8.51174 9.424,-9.306305 9.81622,-9.347851 0.82334,-0.06232 1.56881,-0.350547 2.18076,-0.789377 -1.80803,26.173989 66.45767,17.651864 66.45767,17.651864 0,0 -49.45106,-59.327708 -64.63294,-24.667947 -0.306,0.695898 -0.50904,1.345052 -0.73991,2.004595 -0.77051,-1.264556 -2.25308,-2.090283 -3.90259,-1.96305 -0.21696,0.01299 -2.56182,0.202537 -5.52977,1.506045 2.59522,-12.811753 1.96658,-21.970053 -1.89427,-27.199657 -2.35601,-3.191254 -5.10144,-3.863779 -5.88584,-3.993609 -0.89009,-0.155798 -1.75795,-0.02337 -2.51732,0.314191 4.3337,-30.9258169 -68.032053,-13.8789644 -68.032053,-13.8789644 0,0 54.046213,51.4495444 66.466013,19.6902124 z"
       id="path10" /></g></svg>