<?xml version="1.0" encoding="UTF-8" standalone="no"?>
<!-- Generator: Adobe Illustrator 18.1.1, SVG Export Plug-In  -->
<svg xmlns:rdf="http://www.w3.org/1999/02/22-rdf-syntax-ns#" xmlns="http://www.w3.org/2000/svg" version="1.1" xml:space="preserve" height="256" width="256" enable-background="new 0 0 420.606 248.004" y="0px" x="0px" xmlns:cc="http://creativecommons.org/ns#" xmlns:dc="http://purl.org/dc/elements/1.1/" viewBox="0 0 256.00001 256"><defs><filter id="h" style="color-interpolation-filters:sRGB"><feFlood result="flood" flood-opacity=".49804" flood-color="rgb(50,175,229)"/><feComposite operator="in" result="composite1" in2="SourceGraphic" in="flood"/><feGaussianBlur stdDeviation="5" result="blur" in="composite1"/><feOffset result="offset" dx="0" dy="0"/><feComposite operator="over" result="composite2" in2="offset" in="SourceGraphic"/></filter><filter id="g" style="color-interpolation-filters:sRGB"><feFlood result="flood" flood-opacity=".49804" flood-color="rgb(50,175,229)"/><feComposite operator="in" result="composite1" in2="SourceGraphic" in="flood"/><feGaussianBlur stdDeviation="5" result="blur" in="composite1"/><feOffset result="offset" dx="0" dy="0"/><feComposite operator="over" result="composite2" in2="offset" in="SourceGraphic"/></filter><filter id="f" style="color-interpolation-filters:sRGB"><feFlood result="flood" flood-opacity=".49804" flood-color="rgb(50,175,229)"/><feComposite operator="in" result="composite1" in2="SourceGraphic" in="flood"/><feGaussianBlur stdDeviation="5" result="blur" in="composite1"/><feOffset result="offset" dx="0" dy="0"/><feComposite operator="over" result="composite2" in2="offset" in="SourceGraphic"/></filter><filter id="e" style="color-interpolation-filters:sRGB"><feFlood result="flood" flood-opacity=".49804" flood-color="rgb(50,175,229)"/><feComposite operator="in" result="composite1" in2="SourceGraphic" in="flood"/><feGaussianBlur stdDeviation="5" result="blur" in="composite1"/><feOffset result="offset" dx="0" dy="0"/><feComposite operator="over" result="composite2" in2="offset" in="SourceGraphic"/></filter><filter id="d" style="color-interpolation-filters:sRGB"><feFlood result="flood" flood-opacity=".49804" flood-color="rgb(50,175,229)"/><feComposite operator="in" result="composite1" in2="SourceGraphic" in="flood"/><feGaussianBlur stdDeviation="5" result="blur" in="composite1"/><feOffset result="offset" dx="0" dy="0"/><feComposite operator="over" result="composite2" in2="offset" in="SourceGraphic"/></filter><filter id="c" style="color-interpolation-filters:sRGB"><feFlood result="flood" flood-opacity=".49804" flood-color="rgb(50,175,229)"/><feComposite operator="in" result="composite1" in2="SourceGraphic" in="flood"/><feGaussianBlur stdDeviation="5" result="blur" in="composite1"/><feOffset result="offset" dx="0" dy="0"/><feComposite operator="over" result="composite2" in2="offset" in="SourceGraphic"/></filter><filter id="b" style="color-interpolation-filters:sRGB"><feFlood result="flood" flood-opacity=".49804" flood-color="rgb(50,175,229)"/><feComposite operator="in" result="composite1" in2="SourceGraphic" in="flood"/><feGaussianBlur stdDeviation="5" result="blur" in="composite1"/><feOffset result="offset" dx="0" dy="0"/><feComposite operator="over" result="composite2" in2="offset" in="SourceGraphic"/></filter><filter id="a" style="color-interpolation-filters:sRGB"><feFlood result="flood" flood-opacity=".49804" flood-color="rgb(50,175,229)"/><feComposite operator="in" result="composite1" in2="SourceGraphic" in="flood"/><feGaussianBlur stdDeviation="5" result="blur" in="composite1"/><feOffset result="offset" dx="0" dy="0"/><feComposite operator="over" result="composite2" in2="offset" in="SourceGraphic"/></filter></defs><metadata><rdf:RDF><cc:Work rdf:about=""><dc:format>image/svg+xml</dc:format><dc:type rdf:resource="http://purl.org/dc/dcmitype/StillImage"/><dc:title/></cc:Work></rdf:RDF></metadata><path d="m202.9 121.66c1.3362-11.139-10.529-18.978-26.162-24.032-0.52026-0.16285-4.3365-1.1856-5.5026 3.2854 14.579 4.6197 23.848 11.526 23.848 19.247 0 13.907-30.037 25.181-67.089 25.181-37.053 0-66.415-11.274-66.415-25.181 0-7.712 9.004-14.611 24.47-19.23v-0.007c0-4.4519-5.5694-3.7579-6.1206-3.6296-16.093 5.3099-27.41 13.544-26.502 24.365 2.9446 35.096 25.271 71.031 74.735 71.031 49.7 0 70.578-36.382 74.735-71.031z" filter="url(#a)" stroke-miterlimit="10" stroke-width="1.5" fill="#f2f2f2"/><g stroke="#32afe5" stroke-miterlimit="10" stroke-width="1.5" fill="none"><ellipse rx="67.343" ry="24.977" filter="url(#b)" cy="120.36" cx="127.99"/><ellipse rx="37.685" ry="69.65" filter="url(#c)" cy="123.04" cx="127.99"/><ellipse rx="74.531" ry="69.847" filter="url(#d)" cy="123.04" cx="127.99"/><ellipse rx="74.834" ry="30.086" filter="url(#e)" cy="120.36" cx="127.99"/></g><g stroke-width="1.5" stroke-miterlimit="10"><path d="m128.14 127c12.464 0 23.407-2.1575 31.954-5.6572 1.8939-3.7895 2.9533-8.8586 2.9533-15.669-0.01-26.252-15.64-51.67-34.91-51.67-19.28 0-34.911 25.418-34.911 51.67 0 6.8432 1.0699 11.927 2.9812 15.722 8.51 3.47 19.43 5.61 31.93 5.61z" filter="url(#f)" fill="#d0494b"/><path d="m162.87 102.19c0.14-18.404-13.97-48.693-34.5-48.852-19.52-0.15-35.097 28.367-35.252 48.312-0.20848 26.829 15.236 48.699 34.495 48.848 19.26 0.14928 35.043-21.48 35.251-48.309z" filter="url(#g)" stroke="#32afe5" fill="none"/><path d="m78.907 103.14c0 13.068 21.976 23.662 49.085 23.662s49.085-10.594 49.085-23.662" filter="url(#h)" stroke="#32afe5" fill="none"/></g></svg>
