<?xml version="1.0" encoding="UTF-8" standalone="no"?>
<svg
   xmlns:dc="http://purl.org/dc/elements/1.1/"
   xmlns:cc="http://creativecommons.org/ns#"
   xmlns:rdf="http://www.w3.org/1999/02/22-rdf-syntax-ns#"
   xmlns:svg="http://www.w3.org/2000/svg"
   xmlns="http://www.w3.org/2000/svg"
   id="svg6287"
   viewBox="0 0 255.99757 256.00413"
   x="0px"
   y="0px"
   enable-background="new 0 0 420.606 248.004"
   width="256"
   height="256"
   xml:space="preserve"
   version="1.1"><defs
     id="defs6289"><filter
       x="-.1"
       y="-.4"
       width="1.2"
       height="2"
       style="color-interpolation-filters:sRGB"
       id="a"><feFlood
         id="feFlood6292"
         flood-opacity=".49804"
         result="flood"
         flood-color="rgb(50,175,229)" /><feComposite
         id="feComposite6294"
         in="flood"
         in2="SourceGraphic"
         result="composite1"
         operator="in" /><feGaussianBlur
         id="feGaussianBlur6296"
         in="composite1"
         result="blur"
         stdDeviation="5" /><feOffset
         id="feOffset6298"
         dy="0"
         dx="0"
         result="offset" /><feComposite
         id="feComposite6300"
         in="SourceGraphic"
         in2="offset"
         result="composite2"
         operator="over" /></filter><filter
       id="filter4153"
       style="color-interpolation-filters:sRGB;"><feFlood
         id="feFlood4155"
         result="flood"
         flood-color="rgb(50,175,229)"
         flood-opacity="0.498039" /><feComposite
         id="feComposite4157"
         result="composite1"
         operator="in"
         in2="SourceGraphic"
         in="flood" /><feGaussianBlur
         id="feGaussianBlur4159"
         result="blur"
         stdDeviation="5"
         in="composite1" /><feOffset
         id="feOffset4161"
         result="offset"
         dy="0"
         dx="0" /><feComposite
         id="feComposite4163"
         result="composite2"
         operator="over"
         in2="offset"
         in="SourceGraphic" /></filter><filter
       height="3"
       width="3"
       y="-1"
       x="-1"
       id="filter4876"
       style="color-interpolation-filters:sRGB;"><feFlood
         id="feFlood4878"
         result="flood"
         flood-color="rgb(50,175,229)"
         flood-opacity="0.498039" /><feComposite
         id="feComposite4880"
         result="composite1"
         operator="in"
         in2="SourceGraphic"
         in="flood" /><feGaussianBlur
         id="feGaussianBlur4882"
         result="blur"
         stdDeviation="5"
         in="composite1" /><feOffset
         id="feOffset4884"
         result="offset"
         dy="0"
         dx="0" /><feComposite
         id="feComposite4886"
         result="composite2"
         operator="over"
         in2="offset"
         in="SourceGraphic" /></filter><filter
       width="2"
       height="2"
       y="-0.5"
       x="-0.5"
       id="filter4888"
       style="color-interpolation-filters:sRGB;"><feFlood
         id="feFlood4890"
         result="flood"
         flood-color="rgb(50,175,229)"
         flood-opacity="0.498039" /><feComposite
         id="feComposite4892"
         result="composite1"
         operator="in"
         in2="SourceGraphic"
         in="flood" /><feGaussianBlur
         id="feGaussianBlur4894"
         result="blur"
         stdDeviation="5"
         in="composite1" /><feOffset
         id="feOffset4896"
         result="offset"
         dy="0"
         dx="0" /><feComposite
         id="feComposite4898"
         result="composite2"
         operator="over"
         in2="offset"
         in="SourceGraphic" /></filter><filter
       x="-0.5"
       y="-0.5"
       height="2"
       width="2"
       id="filter4900"
       style="color-interpolation-filters:sRGB;"><feFlood
         id="feFlood4902"
         result="flood"
         flood-color="rgb(50,175,229)"
         flood-opacity="0.498039" /><feComposite
         id="feComposite4904"
         result="composite1"
         operator="in"
         in2="SourceGraphic"
         in="flood" /><feGaussianBlur
         id="feGaussianBlur4906"
         result="blur"
         stdDeviation="5"
         in="composite1" /><feOffset
         id="feOffset4908"
         result="offset"
         dy="0"
         dx="0" /><feComposite
         id="feComposite4910"
         result="composite2"
         operator="over"
         in2="offset"
         in="SourceGraphic" /></filter></defs><metadata
     id="metadata6302"><rdf:RDF><cc:Work
         rdf:about=""><dc:format>image/svg+xml</dc:format><dc:type
           rdf:resource="http://purl.org/dc/dcmitype/StillImage" /><dc:title></dc:title></cc:Work></rdf:RDF></metadata><g
     id="g4912"><path
       style="fill:#f2f2f2"
       d="m 201.59,120.29 c 1.3147,-10.922 -10.359,-18.608 -25.74,-23.563 -0.51187,-0.15968 -4.2666,-1.1625 -5.4139,3.2214 14.344,4.5296 23.464,11.301 23.464,18.872 0,13.636 -29.553,24.691 -66.008,24.691 -36.455,0 -65.344,-11.055 -65.344,-24.691 0,-7.5617 8.8588,-14.326 24.075,-18.855 l 0,-0.0067 c 0,-4.3651 -5.4796,-3.6847 -6.0219,-3.5589 -15.834,5.2064 -26.968,13.28 -26.075,23.89 2.8972,34.412 24.863,69.647 73.53,69.647 48.892,0 69.434,-35.673 73.524,-69.647 z"
       id="path6304" /><g
       style="fill:#f2f2f2"
       id="g6310"><path
         d="m 256,122.48 c -9.3372,-1.6536 -27.702,-4.445 -45.263,-4.445 -0.26963,0 -0.52526,0.008 -0.79307,0.01 0.0292,1.0657 0.009,2.1387 -0.12112,3.2226 -1.0505,8.7272 -3.3975,19.758 -8.4036,30.836 20.432,-6.7984 44.273,-22.464 54.583,-29.625 z"
         id="path6312" /><path
         d="m 198.96,157.13 c -2.9501,5.5687 -6.6245,11.064 -11.224,16.195 -4.9726,5.5476 -10.675,10.18 -16.987,13.905 28.847,12.371 78.418,15.771 78.418,15.771 0,0 -24.924,-29.607 -50.207,-45.871 z"
         id="path6314" /><path
         d="m 67.751,173.55 c -4.35,-4.7613 -8.1145,-10.173 -11.26,-16.065 -25.094,16.336 -49.661,45.519 -49.661,45.519 0,0 49.216,-3.3756 78.107,-15.638 -6.3786,-3.7016 -12.149,-8.3044 -17.188,-13.821 z"
         id="path6316" /><path
         d="m 45.942,120.97 c -0.08278,-0.98528 -0.08034,-1.9621 -0.03469,-2.9335 -0.2185,-6.1e-4 -0.42727,-0.007 -0.6476,-0.007 -17.574,0 -35.93,2.7907 -45.262,4.445 10.166,7.0621 33.492,22.39 53.727,29.333 -4.182,-9.4355 -6.8594,-19.881 -7.7821,-30.841 z"
         id="path6318" /></g><g
       id="g4872"
       transform="matrix(0.99887101,0,0,0.99177056,0.36277852,0.5784164)"><line
         style="fill:#d0494b;fill-opacity:1;stroke:#d0494b;stroke-width:8.92714405;stroke-linecap:round;stroke-linejoin:round;stroke-miterlimit:10;stroke-dasharray:none;stroke-opacity:1"
         id="line10"
         y2="44.2705"
         x2="92.223267"
         y1="103.28626"
         x1="117.4745"
         stroke-miterlimit="10" /><path
         style="fill:#d0494b;fill-opacity:1"
         id="path12"
         d="m 139.18771,127.77574 c 1.04445,-4.12423 0.77367,-8.89715 -1.09503,-13.51533 -4.01413,-9.90292 -13.801,-15.282864 -21.85901,-12.01562 -8.05802,3.26725 -11.34015,13.94383 -7.32602,23.84674 0.20235,0.49991 0.43147,0.98196 0.66357,1.45806 4.98716,0.60108 10.29867,0.93138 15.8155,0.93138 4.78184,0 9.40598,-0.24996 13.80099,-0.70523 z" /></g><circle
       cx="158.99928"
       cy="114.00183"
       id="circle14"
       style="fill:#32afe5;fill-opacity:1;filter:url(#filter4876)"
       r="4.0000644" /><circle
       cx="143.99904"
       cy="78.001259"
       id="circle16"
       style="fill:#32afe5;fill-opacity:1;filter:url(#filter4888)"
       r="8.0001287" /><circle
       cx="155.99924"
       cy="36.00058"
       id="circle18"
       style="fill:#32afe5;fill-opacity:1;filter:url(#filter4900)"
       r="12.000194" /></g></svg>