<?xml version="1.0" encoding="UTF-8" standalone="no"?>
<!-- Generator: Adobe Illustrator 18.1.1, SVG Export Plug-In  -->
<svg xmlns:rdf="http://www.w3.org/1999/02/22-rdf-syntax-ns#" xmlns="http://www.w3.org/2000/svg" version="1.1" xml:space="preserve" height="256" width="256" enable-background="new 0 0 420.606 248.004" y="0px" x="0px" xmlns:cc="http://creativecommons.org/ns#" xmlns:dc="http://purl.org/dc/elements/1.1/" viewBox="0 0 256.00001 256"><defs><filter id="a" style="color-interpolation-filters:sRGB"><feFlood result="flood" flood-opacity=".49804" flood-color="rgb(50,175,229)"/><feComposite operator="in" result="composite1" in2="SourceGraphic" in="flood"/><feGaussianBlur stdDeviation="5" result="blur" in="composite1"/><feOffset result="offset" dx="0" dy="0"/><feComposite operator="over" result="composite2" in2="offset" in="SourceGraphic"/></filter></defs><metadata><rdf:RDF><cc:Work rdf:about=""><dc:format>image/svg+xml</dc:format><dc:type rdf:resource="http://purl.org/dc/dcmitype/StillImage"/><dc:title/></cc:Work></rdf:RDF></metadata><g transform="matrix(.60865 0 0 .60483 -.00060909 52.999)" filter="url(#a)" stroke="#32afe5" stroke-width="2.4722" fill="#d0494b"><path d="m420.61 114.87c-15.341-2.734-45.514-7.349-74.367-7.349-0.443 0-0.863 0.013-1.303 0.016 0.048 1.762 0.015 3.536-0.199 5.328-1.726 14.429-5.582 32.666-13.807 50.983 33.569-11.236 72.738-37.134 89.676-48.978z"/><path d="m326.89 172.16c-4.847 9.207-10.884 18.293-18.441 26.776-8.17 9.172-17.539 16.831-27.91 22.989 47.395 20.453 128.84 26.075 128.84 26.075s-40.951-48.95-82.489-75.84z"/><path d="m111.32 199.31c-7.147-7.872-13.332-16.82-18.5-26.561-41.229 27.009-81.593 75.258-81.593 75.258s80.861-5.581 128.33-25.855c-10.476-6.114-19.955-13.722-28.235-22.842z"/><path d="m75.488 112.38c-0.136-1.629-0.132-3.244-0.057-4.85-0.359-0.001-0.702-0.012-1.064-0.012-28.874 0-59.033 4.614-74.366 7.349 16.702 11.676 55.027 37.019 88.273 48.497-6.871-15.592-11.27-32.869-12.786-50.984z"/></g><path d="m201.6 120.29c1.3147-10.921-10.359-18.608-25.74-23.563-0.51188-0.15968-4.2666-1.1625-5.4139 3.2213 14.344 4.5296 23.464 11.301 23.464 18.872 0 13.636-29.553 24.69-66.008 24.69-36.456 0-65.576-11.054-65.576-24.69 0-7.5616 8.6307-14.326 23.847-18.855v-0.0067c0-4.3651-5.2514-3.6846-5.7931-3.5588-15.834 5.2064-26.854 13.28-25.961 23.89 2.8972 34.411 24.92 69.646 73.592 69.646 48.898 0 69.502-35.673 73.586-69.646z" fill="#f2f2f2"/><path d="m127.9 125.67c12.281 0 23.064-2.1478 31.484-5.6316 1.8661-3.7723 2.91-8.8184 2.91-15.598 0-26.137-15.399-51.44-34.394-51.44s-34.394 25.304-34.394 51.44c0 6.8122 1.0542 11.873 2.9373 15.651 8.3872 3.4524 19.141 5.5783 31.456 5.5783z" fill="#f2f2f2"/></svg>
