<?xml version="1.0" encoding="UTF-8" standalone="no"?>
<!-- Generator: Adobe Illustrator 18.1.1, SVG Export Plug-In  -->
<svg xmlns:rdf="http://www.w3.org/1999/02/22-rdf-syntax-ns#" xmlns="http://www.w3.org/2000/svg" version="1.1" xml:space="preserve" height="256" width="256" enable-background="new 0 0 420.606 248.004" y="0px" x="0px" xmlns:cc="http://creativecommons.org/ns#" xmlns:dc="http://purl.org/dc/elements/1.1/" viewBox="0 0 255.99757 256.00413"><metadata><rdf:RDF><cc:Work rdf:about=""><dc:format>image/svg+xml</dc:format><dc:type rdf:resource="http://purl.org/dc/dcmitype/StillImage"/><dc:title/></cc:Work></rdf:RDF></metadata><g transform="matrix(1.0006 0 0 .99434 -.0042796 -51.556)"><g fill="#f2f2f2" transform="matrix(.60828 0 0 .60828 .00039172 105.15)"><path d="m420.61 114.87c-15.341-2.734-45.514-7.349-74.367-7.349-0.443 0-0.863 0.013-1.303 0.016 0.048 1.762 0.015 3.536-0.199 5.328-1.726 14.429-5.582 32.666-13.807 50.983 33.57-11.24 72.74-37.14 89.68-48.98z"/><path d="m326.89 172.16c-4.847 9.207-10.884 18.293-18.441 26.776-8.17 9.172-17.539 16.831-27.91 22.989 47.395 20.453 128.84 26.075 128.84 26.075s-40.95-48.95-82.49-75.84z"/><path d="m111.32 199.31c-7.147-7.872-13.332-16.82-18.5-26.561-41.229 27.009-81.593 75.258-81.593 75.258s80.861-5.581 128.33-25.855c-10.48-6.12-19.96-13.73-28.24-22.85z"/><path d="m75.488 112.38c-0.136-1.629-0.132-3.244-0.057-4.85-0.359-0.001-0.702-0.012-1.064-0.012-28.874 0-59.033 4.614-74.366 7.349 16.702 11.676 55.027 37.019 88.273 48.497-6.871-15.6-11.27-32.87-12.786-50.99z"/><path d="m331.22 111.25c2.16-18.057-17.02-30.766-42.291-38.958-0.841-0.264-7.01-1.922-8.895 5.326 23.567 7.489 38.551 18.685 38.551 31.202 0 22.545-48.555 40.822-108.45 40.822-59.896 0-107.36-18.277-107.36-40.822 0-12.502 14.555-23.686 39.555-31.174v-0.011c0-7.217-9.003-6.092-9.894-5.884-26.015 8.608-44.309 21.956-42.841 39.499 4.76 56.894 40.85 115.15 120.81 115.15 80.33 0 114.08-58.98 120.8-115.15z"/></g><path d="m127.82 178.23c12.273 0 23.049-2.16 31.465-5.6637 1.865-3.7938 2.9082-8.8687 2.9082-15.687 0-26.285-15.389-51.733-34.372-51.733s-34.373 25.448-34.373 51.733c0 6.851 1.0535 11.94 2.9355 15.74 8.3821 3.4672 19.124 5.6083 31.436 5.6083z" fill="#d0494b"/></g></svg>
