<svg xmlns="http://www.w3.org/2000/svg" enable-background="new 0 0 420 248" xml:space="preserve" height="512" width="512" version="1.1" y="0px" x="0px" viewBox="0 0 512 512">
<path d="m512 246c-33-4-64-9-92-9-3 23-7 44-17 68 41-14 88-45 109-59z" fill="#f2f2f2"/>
<path d="m0 246c33-4 64-9 92-9 3 23 7 44 17 68-41-14-88-45-109-59z" fill="#f2f2f2"/>
<path d="m114 315c14 25 33 47 56 60-58 25-156 32-156 32s50-60 100-92z" fill="#f2f2f2"/>
<path d="m398 315c-14 25-33 47-56 60 58 25 156 32 156 32s-50-60-100-92z" fill="#f2f2f2"/>
<path d="m402 241c3-22-21-38-51-47-1-0-9-2-11 6 29 9 47 23 47 38 0 27-59 50-132 50-73 0-131-22-131-50 0-15 18-29 48-38v-0c0-9-11-7-12-7-32 10-54 27-52 48 6 69 50 140 147 140 98 0 139-72 147-140z" fill="#f2f2f2"/>
<path stroke-linejoin="round" d="m210 198-55-130" stroke="#d0494b" stroke-linecap="round" stroke-miterlimit="10" stroke-width="20"/>
<path d="m258 250c2-9 2-19-2-30-9-22-30-33-48-26-18 7-25 30-16 52 0 1 1 2 1 3 11 1 23 2 35 2 10 0 20-0 30-2z" fill="#d0494b"/>
<circle cx="300" cy="86" r="24" fill="#d0494b"/>
<circle cx="260" cy="162" r="16" fill="#d0494b"/>
<circle cx="290" cy="216" r="12" fill="#d0494b"/>
</svg>

