<?xml version="1.0" encoding="UTF-8" standalone="no"?>
<svg
   xmlns:dc="http://purl.org/dc/elements/1.1/"
   xmlns:cc="http://creativecommons.org/ns#"
   xmlns:rdf="http://www.w3.org/1999/02/22-rdf-syntax-ns#"
   xmlns:svg="http://www.w3.org/2000/svg"
   xmlns="http://www.w3.org/2000/svg"
   version="1.1"
   id="svg2"
   viewBox="0 0 256 256"
   height="256"
   width="256">
  <defs
     id="defs4" />
  <metadata
     id="metadata7">
    <rdf:RDF>
      <cc:Work
         rdf:about="">
        <dc:format>image/svg+xml</dc:format>
        <dc:type
           rdf:resource="http://purl.org/dc/dcmitype/StillImage" />
        <dc:title></dc:title>
      </cc:Work>
    </rdf:RDF>
  </metadata>
  <g
     id="g4148">
    <path
       id="path4224"
       overflow="visible"
       display="inline"
       visibility="visible"
       style="color:#000000;text-indent:0;text-transform:none;direction:ltr;block-progression:tb;baseline-shift:baseline;display:inline;overflow:visible;visibility:visible;fill:#545454;fill-opacity:1;fill-rule:nonzero;stroke:none;marker:none;enable-background:accumulate"
       d="m 55.895522,76.72127 c -1.164498,0.14322 -2.206017,0.79409 -2.84506,1.77794 -16.99849,25.65699 -19.40985,58.00139 -7.29046,85.60837 L 2.6395524,207.22294 c -2.33832999,2.3375 -2.96978999,5.7482 -2.48942999,8.7119 0.48036,2.9643 1.92926999,5.7517 4.26758999,8.0897 l 27.5615296,27.5583 c 2.33832,2.338 5.12654,3.7867 8.09064,4.267 2.96458,0.4804 6.37466,-0.151 8.713,-2.4891 l 43.03152,-43.1153 c 27.610778,12.1209 60.044938,9.7079 85.707458,-7.28962 2.03938,-1.38486 2.3368,-4.27381 0.62234,-6.04504 l -20.8934,-20.89093 c -1.22302,-1.21592 -3.09123,-1.50331 -4.62322,-0.71118 -20.0802,10.48152 -45.42388,7.2988 -62.324618,-9.60093 -16.90222,-16.89971 -20.08482,-42.23889 -9.60208,-62.3172 0.792226,-1.5318 0.504809,-3.3998 -0.71126,-4.62268 l -20.8045,-20.89093 c -0.776501,-0.77369 -1.838366,-1.19194 -2.93398,-1.15566 -0.118481,-0.005 -0.237139,-0.005 -0.35562,0 z" />
    <g
       id="g4144">
      <circle
         style="fill:#f6336d;fill-opacity:1;stroke:#f6336d;stroke-width:1.39100003;stroke-linecap:round;stroke-linejoin:round;stroke-miterlimit:10;stroke-dasharray:none;stroke-dashoffset:10;stroke-opacity:1"
         id="path4136-7"
         cx="161.99991"
         cy="94.000092"
         r="53.304405" />
      <path
         d="M 210.16725,91.82854 253.2877,48.71318 c 2.33833,-2.3375 2.96979,-5.7482 2.48943,-8.7119 -0.48036,-2.9643 -1.92927,-5.7517 -4.26759,-8.0897 L 223.94801,4.35328 c -2.33832,-2.338 -5.12654,-3.7867 -8.09064,-4.267 -2.96458,-0.4804 -6.37466,0.151 -8.713,2.4891 l -43.03152,43.1153 c 46.0544,46.13786 0,0 46.0544,46.13786 z"
         style="color:#000000;text-indent:0;text-transform:none;direction:ltr;block-progression:tb;baseline-shift:baseline;display:inline;overflow:visible;visibility:visible;fill:#f6336d;fill-opacity:1;fill-rule:nonzero;stroke:none;marker:none;enable-background:accumulate"
         visibility="visible"
         display="inline"
         overflow="visible"
         id="path4224-0" />
    </g>
  </g>
</svg>
